<svg width="59" height="14" viewBox="0 0 59 14" fill="none" xmlns="http://www.w3.org/2000/svg">
<g clip-path="url(#clip0_101_3691)">
<path fill-rule="evenodd" clip-rule="evenodd" d="M0 13.1493V0.390015H2.91849V13.1493H0ZM10.2078 0.390015C10.2078 3.15229 9.13461 5.72192 7.22237 7.6319L11.2565 13.1498H7.65177L3.2675 7.15309L4.39902 6.3031C6.27549 4.89316 7.35174 2.73804 7.35174 0.390015H10.2078ZM12.1072 13.1458H14.8634V0.392458H12.1072V13.1458ZM39.0441 4.08652C37.9922 4.08652 36.9967 4.41408 36.3311 5.31783V4.32431H33.7092V13.1458H36.3633V8.50979C36.3633 7.16826 37.2602 6.51132 38.34 6.51132C39.4973 6.51132 40.1626 7.20479 40.1626 8.49153V13.1458H42.7928V7.5357C42.7928 5.4827 41.1654 4.08652 39.0441 4.08652ZM23.1939 4.88814C22.45 4.3791 21.5521 4.07996 20.5837 4.07996C18.0206 4.07996 15.9428 6.16408 15.9428 8.73499C15.9428 11.3059 18.0206 13.39 20.5837 13.39C21.5521 13.39 22.45 13.0909 23.1939 12.582V13.1458H25.8273V4.3238H23.1939V4.88814ZM20.7991 11.0048C19.4814 11.0048 18.4131 9.98855 18.4131 8.73499C18.4131 7.48143 19.4814 6.46541 20.7991 6.46541C22.1169 6.46541 23.1852 7.48143 23.1852 8.73499C23.1852 9.98855 22.1169 11.0048 20.7991 11.0048ZM29.9009 5.47293V4.32393H27.2048V13.1458H29.9069V9.02693C29.9069 7.6373 31.4085 6.89034 32.4504 6.89034C32.461 6.89034 32.471 6.89137 32.4816 6.89149V4.32444C31.4123 4.32444 30.4287 4.78371 29.9009 5.47293ZM50.9745 4.88814C50.2306 4.3791 49.3326 4.07996 48.3641 4.07996C45.801 4.07996 43.7233 6.16408 43.7233 8.73499C43.7233 11.3059 45.801 13.39 48.3641 13.39C49.3326 13.39 50.2306 13.0909 50.9745 12.582V13.1458H53.6077V4.3238H50.9745V4.88814ZM48.5796 11.0048C47.2618 11.0048 46.1936 9.98855 46.1936 8.73499C46.1936 7.48143 47.2618 6.46541 48.5796 6.46541C49.8974 6.46541 50.9656 7.48143 50.9656 8.73499C50.9656 9.98855 49.8974 11.0048 48.5796 11.0048ZM56.4033 10.0167C57.3161 10.0167 58.0562 10.7589 58.0562 11.6746C58.0562 12.5901 57.3161 13.3324 56.4033 13.3324C55.4906 13.3324 54.7506 12.5901 54.7506 11.6746C54.7506 10.7589 55.4906 10.0167 56.4033 10.0167Z" fill="#343434"/>
</g>
<defs>
<clipPath id="clip0_101_3691">
<rect width="58.5" height="13" fill="white" transform="translate(0 0.390015)"/>
</clipPath>
</defs>
</svg>
