<svg width="25" height="18" viewBox="0 0 25 18" fill="none" xmlns="http://www.w3.org/2000/svg">
<path d="M24.2656 4.49414C24.2656 4.49414 24.1953 4.18945 24.0547 3.58008C23.9141 2.9707 23.6641 2.48633 23.3047 2.12695C22.8516 1.64258 22.3945 1.35742 21.9336 1.27148C21.4727 1.18555 21.125 1.12695 20.8906 1.0957C20.0625 1.0332 19.1562 0.986328 18.1719 0.955078C17.1875 0.923828 16.2773 0.900391 15.4414 0.884766C14.6055 0.869141 13.9062 0.861328 13.3438 0.861328C12.7812 0.861328 12.5 0.861328 12.5 0.861328C12.5 0.861328 12.2188 0.861328 11.6562 0.861328C11.0938 0.861328 10.3945 0.869141 9.55859 0.884766C8.72266 0.900391 7.8125 0.923828 6.82812 0.955078C5.84375 0.986328 4.9375 1.0332 4.10938 1.0957C3.875 1.12695 3.52734 1.18555 3.06641 1.27148C2.60547 1.35742 2.14844 1.64258 1.69531 2.12695C1.33594 2.48633 1.08594 2.9707 0.945312 3.58008C0.804688 4.18945 0.734375 4.49414 0.734375 4.49414C0.671875 5.07227 0.617188 5.69336 0.570312 6.35742C0.523438 7.02148 0.5 7.68945 0.5 8.36133V10.1895C0.5 10.8926 0.523438 11.5801 0.570312 12.252C0.617188 12.9238 0.679688 13.5957 0.757812 14.2676C0.835938 14.9238 0.921875 15.3652 1.01562 15.5918C1.10938 15.8184 1.33594 16.1113 1.69531 16.4707C2.14844 16.9551 2.63672 17.2363 3.16016 17.3145C3.68359 17.3926 4.07812 17.4551 4.34375 17.502C4.82812 17.5488 5.52344 17.5879 6.42969 17.6191C7.33594 17.6504 8.23828 17.6738 9.13672 17.6895C10.0352 17.7051 10.8203 17.7168 11.4922 17.7246C12.1641 17.7324 12.5 17.7363 12.5 17.7363C12.5 17.7363 12.7812 17.7363 13.3438 17.7363C13.9062 17.7363 14.6094 17.7285 15.4531 17.7129C16.2969 17.6973 17.207 17.6738 18.1836 17.6426C19.1602 17.6113 20.0703 17.5645 20.9141 17.502C21.1484 17.4707 21.4922 17.4121 21.9453 17.3262C22.3984 17.2402 22.8516 16.9551 23.3047 16.4707C23.6641 16.1113 23.9141 15.627 24.0547 15.0176C24.1953 14.4082 24.2656 14.1035 24.2656 14.1035C24.3281 13.5254 24.3828 12.9043 24.4297 12.2402C24.4766 11.5762 24.5 10.9004 24.5 10.2129V8.38477C24.5 7.69727 24.4766 7.01367 24.4297 6.33398C24.3828 5.6543 24.3203 4.98633 24.2422 4.33008L24.2656 4.49414ZM10.0156 12.416V5.66602L16.5078 9.06445L10.0156 12.416Z" fill="black"/>
</svg>
