<svg width="16" height="25" viewBox="0 0 16 25" fill="none" xmlns="http://www.w3.org/2000/svg">
<path d="M8.17004 0.970636C8.15442 0.970636 8.14661 0.970636 8.14661 0.970636C8.14661 0.970636 8.1388 0.970636 8.12318 0.970636C7.15468 0.970636 6.23695 1.15809 5.36999 1.53299C4.50303 1.90789 3.74932 2.41557 3.10886 3.05603C2.46841 3.69649 1.95682 4.44629 1.57411 5.30544C1.1914 6.16459 1.00004 7.07841 1.00004 8.04691V8.07034C0.937556 9.74178 1.25388 11.5655 1.94901 13.5416C2.64414 15.5176 3.42519 17.3531 4.29215 19.0479C5.15911 20.7428 5.95577 22.1565 6.68215 23.289C7.40852 24.4215 7.77171 24.9878 7.77171 24.9878C7.77171 24.9878 8.16223 24.4215 8.94327 23.289C9.72432 22.1565 10.5874 20.7428 11.5324 19.0479C12.4775 17.3531 13.3445 15.5176 14.1333 13.5416C14.9222 11.5655 15.3166 9.74178 15.3166 8.07034C15.3166 7.08623 15.1292 6.16459 14.7543 5.30544C14.3794 4.44629 13.8678 3.69649 13.2195 3.05603C12.5712 2.41557 11.8175 1.90789 10.9584 1.53299C10.0992 1.15809 9.17759 0.970636 8.19347 0.970636C8.19347 0.970636 8.18957 0.970636 8.18176 0.970636C8.17394 0.970636 8.17004 0.970636 8.17004 0.970636ZM8.17004 11.7959C7.35775 11.7959 6.66653 11.5108 6.09636 10.9407C5.5262 10.3705 5.24112 9.6793 5.24112 8.86701C5.24112 8.05472 5.5262 7.3635 6.09636 6.79333C6.66653 6.22317 7.35775 5.93809 8.17004 5.93809C8.96671 5.93809 9.65403 6.22317 10.232 6.79333C10.81 7.3635 11.099 8.05472 11.099 8.86701C11.099 9.6793 10.81 10.3705 10.232 10.9407C9.65403 11.5108 8.96671 11.7959 8.17004 11.7959Z" fill="black"/>
</svg>
