<svg width="20" height="21" viewBox="0 0 20 21" fill="none" xmlns="http://www.w3.org/2000/svg">
<path d="M0.419604 0.440585C0.552277 0.300925 0.709888 0.19012 0.883407 0.114518C1.05693 0.0389147 1.24295 0 1.43081 0C1.61868 0 1.8047 0.0389147 1.97822 0.114518C2.15174 0.19012 2.30935 0.300925 2.44202 0.440585L10.0004 8.37986L17.5587 0.440585C17.6915 0.301151 17.8492 0.190546 18.0227 0.115085C18.1962 0.0396245 18.3821 0.00078518 18.5699 0.00078518C18.7577 0.00078518 18.9437 0.0396245 19.1172 0.115085C19.2907 0.190546 19.4484 0.301151 19.5811 0.440585C19.7139 0.580018 19.8193 0.745549 19.8911 0.927728C19.963 1.10991 20 1.30516 20 1.50235C20 1.69954 19.963 1.8948 19.8911 2.07698C19.8193 2.25916 19.7139 2.42469 19.5811 2.56412L12.0199 10.5004L19.5811 18.4367C19.7139 18.5761 19.8193 18.7416 19.8911 18.9238C19.963 19.106 20 19.3012 20 19.4984C20 19.6956 19.963 19.8909 19.8911 20.0731C19.8193 20.2552 19.7139 20.4208 19.5811 20.5602C19.4484 20.6996 19.2907 20.8102 19.1172 20.8857C18.9437 20.9612 18.7577 21 18.5699 21C18.3821 21 18.1962 20.9612 18.0227 20.8857C17.8492 20.8102 17.6915 20.6996 17.5587 20.5602L10.0004 12.6209L2.44202 20.5602C2.30923 20.6996 2.15158 20.8102 1.97808 20.8857C1.80457 20.9612 1.61861 21 1.43081 21C1.24301 21 1.05705 20.9612 0.88355 20.8857C0.710047 20.8102 0.552398 20.6996 0.419604 20.5602C0.286811 20.4208 0.181473 20.2552 0.109605 20.0731C0.0377376 19.8909 0.00074779 19.6956 0.00074779 19.4984C0.00074779 19.3012 0.0377376 19.106 0.109605 18.9238C0.181473 18.7416 0.286811 18.5761 0.419604 18.4367L7.98082 10.5004L0.419604 2.56412C0.286595 2.42482 0.181067 2.25933 0.109064 2.07713C0.0370616 1.89493 0 1.69961 0 1.50235C0 1.30509 0.0370616 1.10977 0.109064 0.927578C0.181067 0.745382 0.286595 0.579891 0.419604 0.440585Z" fill="black"/>
</svg>
