<svg width="25" height="25" viewBox="0 0 25 25" fill="none" xmlns="http://www.w3.org/2000/svg">
<path d="M12.0234 0.742188C12.0234 0.742188 12.0195 0.742188 12.0117 0.742188C12.0039 0.742188 12 0.742188 12 0.742188C10.3438 0.742188 8.78906 1.05859 7.33594 1.69141C5.88281 2.32422 4.61328 3.18359 3.52734 4.26953C2.44141 5.35547 1.58203 6.625 0.949219 8.07812C0.316406 9.53125 0 11.0859 0 12.7422C0 13.9766 0.175781 15.1523 0.527344 16.2695C0.878906 17.3867 1.36719 18.418 1.99219 19.3633C2.61719 20.3086 3.36719 21.1523 4.24219 21.8945C5.11719 22.6367 6.07812 23.2422 7.125 23.7109C7.15625 23.6328 7.17578 23.543 7.18359 23.4414C7.19141 23.3398 7.19531 23.2344 7.19531 23.125C7.19531 22.75 7.21484 22.3789 7.25391 22.0117C7.29297 21.6445 7.34375 21.2812 7.40625 20.9219L8.95312 14.4531C8.82812 14.1719 8.73438 13.8789 8.67188 13.5742C8.60938 13.2695 8.57812 12.9453 8.57812 12.6016C8.57812 12.6016 8.57812 12.5938 8.57812 12.5781C8.57812 12.5625 8.57812 12.5547 8.57812 12.5547C8.57812 11.6641 8.80469 10.9258 9.25781 10.3398C9.71094 9.75391 10.2578 9.46094 10.8984 9.46094C11.4453 9.46094 11.8516 9.63672 12.1172 9.98828C12.3828 10.3398 12.5156 10.7578 12.5156 11.2422C12.5156 11.7891 12.3828 12.4453 12.1172 13.2109C11.8516 13.9766 11.625 14.7422 11.4375 15.5078C11.2969 16.1484 11.4219 16.6953 11.8125 17.1484C12.2031 17.6016 12.7109 17.8281 13.3359 17.8281C13.9141 17.8281 14.4336 17.6562 14.8945 17.3125C15.3555 16.9688 15.7539 16.5078 16.0898 15.9297C16.4258 15.3516 16.6836 14.6758 16.8633 13.9023C17.043 13.1289 17.1328 12.3047 17.1328 11.4297C17.1328 10.1172 16.7031 9.02344 15.8438 8.14844C14.9844 7.27344 13.75 6.83594 12.1406 6.83594C11.2344 6.83594 10.4141 6.99219 9.67969 7.30469C8.94531 7.61719 8.32422 8.03906 7.81641 8.57031C7.30859 9.10156 6.91797 9.71484 6.64453 10.4102C6.37109 11.1055 6.23438 11.8281 6.23438 12.5781C6.23438 13.1094 6.30469 13.5664 6.44531 13.9492C6.58594 14.332 6.78125 14.6641 7.03125 14.9453C7.14062 15.0703 7.20703 15.1758 7.23047 15.2617C7.25391 15.3477 7.24219 15.4609 7.19531 15.6016C7.17969 15.7109 7.14453 15.875 7.08984 16.0938C7.03516 16.3125 6.99219 16.4688 6.96094 16.5625C6.94531 16.6719 6.89844 16.7578 6.82031 16.8203C6.74219 16.8828 6.65625 16.9141 6.5625 16.9141C6.51562 16.9141 6.47656 16.9102 6.44531 16.9023C6.41406 16.8945 6.38281 16.8828 6.35156 16.8672C5.52344 16.5234 4.91016 15.9336 4.51172 15.0977C4.11328 14.2617 3.91406 13.3281 3.91406 12.2969C3.91406 11.4375 4.08984 10.5664 4.44141 9.68359C4.79297 8.80078 5.32812 7.99609 6.04688 7.26953C6.76562 6.54297 7.66016 5.94922 8.73047 5.48828C9.80078 5.02734 11.0469 4.79688 12.4688 4.79688C13.625 4.79688 14.668 4.98828 15.5977 5.37109C16.5273 5.75391 17.3242 6.26172 17.9883 6.89453C18.6523 7.52734 19.168 8.25781 19.5352 9.08594C19.9023 9.91406 20.0859 10.7734 20.0859 11.6641C20.0859 12.8359 19.9297 13.9258 19.6172 14.9336C19.3047 15.9414 18.8633 16.8125 18.293 17.5469C17.7227 18.2812 17.0391 18.8555 16.2422 19.2695C15.4453 19.6836 14.5625 19.8906 13.5938 19.8906C12.9531 19.8906 12.3594 19.7422 11.8125 19.4453C11.2656 19.1484 10.8828 18.7969 10.6641 18.3906C10.6641 18.3906 10.543 18.875 10.3008 19.8438C10.0586 20.8125 9.89844 21.4297 9.82031 21.6953C9.67969 22.1797 9.50391 22.6367 9.29297 23.0664C9.08203 23.4961 8.85156 23.9062 8.60156 24.2969C9.13281 24.4375 9.6875 24.5469 10.2656 24.625C10.8438 24.7031 11.4375 24.7422 12.0469 24.7422C13.7031 24.7422 15.2617 24.4297 16.7227 23.8047C18.1836 23.1797 19.457 22.3242 20.543 21.2383C21.6289 20.1523 22.4844 18.8789 23.1094 17.418C23.7344 15.957 24.0469 14.3984 24.0469 12.7422C24.0469 11.0859 23.7344 9.53125 23.1094 8.07812C22.4844 6.625 21.6289 5.35547 20.543 4.26953C19.457 3.18359 18.1836 2.32422 16.7227 1.69141C15.2617 1.05859 13.7031 0.742188 12.0469 0.742188C12.0469 0.742188 12.043 0.742188 12.0352 0.742188C12.0273 0.742188 12.0234 0.742188 12.0234 0.742188Z" fill="black"/>
</svg>
