<svg width="25" height="21" viewBox="0 0 25 21" fill="none" xmlns="http://www.w3.org/2000/svg">
<path d="M24.5 2.79897L22.25 5.04897V5.42397C22.25 5.62709 22.2344 5.83022 22.2031 6.03334C22.1719 6.23647 22.1328 6.43959 22.0859 6.64272C22.0703 7.40834 21.9883 8.22475 21.8398 9.09193C21.6914 9.95912 21.4258 10.8458 21.043 11.7521C20.6602 12.6583 20.1445 13.5607 19.4961 14.4591C18.8477 15.3576 18.0156 16.213 17 17.0255C15.0156 18.6037 13.0391 19.5333 11.0703 19.8146C9.10156 20.0958 7.33203 20.0841 5.76172 19.7794C4.19141 19.4747 2.92188 19.0646 1.95312 18.549C0.984375 18.0333 0.5 17.7755 0.5 17.7755C3.875 17.7755 5.84375 17.4005 6.40625 16.6505C6.96875 15.9005 7.25 15.5255 7.25 15.5255C6.875 15.5255 6.42969 15.3693 5.91406 15.0568C5.39844 14.7443 4.90625 14.4005 4.4375 14.0255C3.96875 13.6505 3.57031 13.3068 3.24219 12.9943C2.91406 12.6818 2.75 12.5255 2.75 12.5255C3.125 12.9005 3.59375 12.9943 4.15625 12.8068C4.71875 12.6193 5 12.5255 5 12.5255C3.125 11.4005 2.03125 10.3732 1.71875 9.4435C1.40625 8.51381 1.25 8.04897 1.25 8.04897C1.625 8.42397 2.09375 8.51772 2.65625 8.33022C3.21875 8.14272 3.5 8.04897 3.5 8.04897C2.5625 7.29897 1.95703 6.52553 1.68359 5.72865C1.41016 4.93178 1.29688 4.20522 1.34375 3.54897C1.39062 2.89272 1.51172 2.35365 1.70703 1.93178C1.90234 1.5099 2 1.29897 2 1.29897C2.1875 2.23647 2.83984 3.03725 3.95703 3.70131C5.07422 4.36537 6.26562 4.90834 7.53125 5.33022C8.79688 5.75209 9.94141 6.06068 10.9648 6.256C11.9883 6.45131 12.5 6.54897 12.5 6.54897L12.6172 6.47865C12.5859 6.2599 12.5586 6.02943 12.5352 5.78725C12.5117 5.54506 12.5 5.29897 12.5 5.04897C12.5 4.37709 12.6289 3.76381 12.8867 3.20912C13.1445 2.65443 13.4922 2.18178 13.9297 1.79115C14.3672 1.40053 14.8828 1.09584 15.4766 0.87709C16.0703 0.65834 16.7031 0.548965 17.375 0.548965C18.1094 0.548965 18.7969 0.705215 19.4375 1.01772C20.0781 1.33022 20.6172 1.74428 21.0547 2.2599L21.5 2.04897L23.75 0.548965L22.25 3.54897L24.5 2.79897Z" fill="black"/>
</svg>
