<svg width="20" height="18" viewBox="0 0 20 18" fill="none" xmlns="http://www.w3.org/2000/svg">
<path d="M9.62197 17.8588L9.32509 17.7025C9.24176 17.6608 8.75478 17.3692 7.86415 16.8275C6.97353 16.2858 5.98915 15.5463 4.91103 14.6088C3.8329 13.6713 2.81467 12.5567 1.85634 11.265C0.898007 9.97335 0.304257 8.55668 0.0750907 7.01501C-0.0499093 6.21293 -0.0108468 5.42387 0.192278 4.64783C0.395403 3.87179 0.741757 3.17647 1.23134 2.56189C1.66884 1.99939 2.18967 1.54887 2.79384 1.21033C3.39801 0.871786 4.04905 0.660849 4.74697 0.577515C5.22613 0.525431 5.69749 0.538452 6.16103 0.616577C6.62457 0.694702 7.06467 0.830118 7.48134 1.02283C7.89801 1.21554 8.28603 1.46033 8.6454 1.7572C9.00478 2.05408 9.31988 2.39001 9.59072 2.76501C9.84072 2.42126 10.1272 2.11397 10.4501 1.84314C10.773 1.57231 11.1194 1.34054 11.4892 1.14783C11.8589 0.955118 12.2496 0.809286 12.661 0.710327C13.0725 0.611368 13.4918 0.56189 13.9188 0.56189C14.6272 0.56189 15.2912 0.699911 15.911 0.975952C16.5308 1.25199 17.0725 1.62699 17.536 2.10095C17.9996 2.57491 18.3668 3.1322 18.6376 3.77283C18.9084 4.41345 19.0438 5.09835 19.0438 5.82751C19.0438 6.53585 18.9475 7.25199 18.7548 7.97595C18.5621 8.69991 18.2704 9.42387 17.8798 10.1478C17.4892 10.8718 17.0074 11.5905 16.4345 12.3041C15.8615 13.0176 15.1949 13.7181 14.4345 14.4056C13.8824 14.9161 13.3381 15.3744 12.8017 15.7806C12.2652 16.1869 11.7886 16.5332 11.372 16.8197C10.9553 17.1062 10.6168 17.3275 10.3563 17.4838C10.0959 17.64 9.95009 17.7233 9.91884 17.7338L9.62197 17.8588ZM5.32509 1.76501C5.24176 1.76501 5.16884 1.76762 5.10634 1.77283C5.04384 1.77804 4.97092 1.78585 4.88759 1.79626C4.36676 1.83793 3.87457 1.99158 3.41103 2.2572C2.94749 2.52283 2.54384 2.87439 2.20009 3.31189C1.81467 3.80147 1.54384 4.35356 1.38759 4.96814C1.23134 5.58272 1.20009 6.20251 1.29384 6.82751C1.47092 8.0671 1.93967 9.22856 2.70009 10.3119C3.46051 11.3952 4.29384 12.3588 5.20009 13.2025C6.10634 14.0463 6.98134 14.7494 7.82509 15.3119C8.66884 15.8744 9.2678 16.2598 9.62197 16.4681C9.99697 16.2494 10.635 15.8249 11.536 15.1947C12.4371 14.5645 13.3537 13.7806 14.286 12.8431C15.2183 11.9056 16.0438 10.8379 16.7626 9.64001C17.4813 8.4421 17.8407 7.16085 17.8407 5.79626C17.8407 5.3171 17.7444 4.83533 17.5517 4.35095C17.3589 3.86658 17.0933 3.43429 16.7548 3.05408C16.4162 2.67387 16.0048 2.36397 15.5204 2.12439C15.036 1.88481 14.5022 1.76501 13.9188 1.76501C13.1063 1.76501 12.3615 1.98897 11.6845 2.43689C11.0074 2.88481 10.5022 3.47856 10.1688 4.21814L9.62197 5.49939L9.07509 4.21814C8.74176 3.45772 8.23394 2.85876 7.55165 2.42126C6.86936 1.98376 6.12717 1.76501 5.32509 1.76501Z" fill="black"/>
</svg>
