<svg width="190" height="91" viewBox="0 0 190 91" fill="none" xmlns="http://www.w3.org/2000/svg">
<path d="M71.8114 22.3072C69.521 22.3072 67.6887 24.1665 67.6887 26.4299C67.6887 28.6934 69.521 30.5796 71.8114 30.5796C74.1018 30.5796 75.9342 28.7203 75.9342 26.4569C75.9342 24.1934 74.0749 22.3072 71.8114 22.3072ZM74.8024 26.4569C74.8024 28.1006 73.4551 29.4479 71.8114 29.4479C70.1677 29.4479 68.8204 28.1006 68.8204 26.4569C68.8204 24.8132 70.1677 23.4659 71.8114 23.4659C73.4551 23.4659 74.8024 24.7862 74.8024 26.4569Z" fill="black"/>
<path d="M71.8114 18.1575C67.2306 18.1575 63.512 21.876 63.512 26.4569C63.512 28.9629 65.048 31.3072 66.3683 33.0856C67.0959 34.0287 67.8773 34.9988 68.6587 35.915C69.5749 37.0197 70.545 38.1515 71.3533 39.2832C71.4611 39.4449 71.6497 39.5257 71.8114 39.5257C71.9192 39.5257 72.0539 39.4988 72.1348 39.4179C72.1887 39.391 72.2156 39.3371 72.2695 39.2832C73.0779 38.1784 74.021 37.0197 74.9641 35.915C75.7456 34.9988 76.527 34.0287 77.2545 33.0856C78.5749 31.3341 80.1108 28.9629 80.1108 26.4569C80.1108 21.876 76.3923 18.1575 71.8114 18.1575ZM78.9791 26.4569C78.9791 28.1545 78.1707 29.9868 76.3384 32.385C75.6647 33.3012 74.8833 34.2173 74.1288 35.1335C73.3474 36.0766 72.539 37.0467 71.8114 38.0168C71.0839 37.0467 70.2755 36.0766 69.4941 35.1335C68.7396 34.2443 67.9581 33.3012 67.2845 32.385C65.4521 29.9599 64.6438 28.1275 64.6438 26.4569C64.6438 22.4958 67.8503 19.2892 71.8114 19.2892C75.7456 19.2892 78.9791 22.4958 78.9791 26.4569Z" fill="black"/>
<path d="M29.8025 38.5018L25.9761 32.7353C28.1587 31.0916 29.3713 28.5048 29.2366 25.7832C29.1288 23.6006 28.1587 21.6066 26.542 20.1515C24.9252 18.6964 22.8234 17.9689 20.6677 18.0766C18.4851 18.1844 16.4911 19.1545 15.036 20.7712C13.5809 22.388 12.8534 24.4898 12.9611 26.6455C13.2037 31.1186 17.057 34.5677 21.53 34.3251C22.7156 34.2712 23.8474 33.9479 24.8983 33.382L28.7246 39.1754C28.8055 39.3102 28.9671 39.418 29.1288 39.4449C29.1827 39.4449 29.2096 39.4449 29.2635 39.4449C29.3983 39.4449 29.5061 39.418 29.6138 39.3371C29.7486 39.2563 29.8564 39.0946 29.8833 38.9329C29.9372 38.7982 29.8833 38.6365 29.8025 38.5018ZM26.2456 30.8221C25.0061 32.1964 23.3354 33.0048 21.4761 33.0856C19.6438 33.1934 17.8653 32.5736 16.4911 31.3341C15.1168 30.0946 14.3084 28.4239 14.2276 26.5647C14.1198 24.7323 14.7396 22.9539 15.9791 21.5796C17.2186 20.2054 18.8893 19.397 20.7486 19.3162C20.8833 19.3162 20.9911 19.3162 21.1258 19.3162C22.8234 19.3162 24.4402 19.9359 25.7067 21.0677C27.0809 22.3072 27.8893 23.9778 27.9701 25.8371C28.0779 27.6964 27.4581 29.4479 26.2456 30.8221Z" fill="black"/>
<path d="M125.192 28.9359C126.566 27.7772 127.374 26.0527 127.374 24.2742C127.374 20.906 124.626 18.1575 121.258 18.1575C117.889 18.1575 115.141 20.906 115.141 24.2742C115.141 26.0796 115.949 27.7772 117.323 28.9359C113.659 30.5257 111.261 34.4329 111.261 38.879C111.261 39.2024 111.53 39.4718 111.853 39.4718H130.689C131.012 39.4718 131.282 39.2024 131.282 38.879C131.255 34.4599 128.856 30.5257 125.192 28.9359ZM116.326 24.2742C116.326 21.5527 118.536 19.3431 121.258 19.3431C123.979 19.3431 126.189 21.5527 126.189 24.2742C126.189 26.0257 125.246 27.6694 123.71 28.5317C123.683 28.5317 123.683 28.5587 123.656 28.5587C123.602 28.5856 123.575 28.6126 123.521 28.6395C123.521 28.6395 123.521 28.6395 123.494 28.6395C122.793 29.0168 122.039 29.1784 121.231 29.1784C118.536 29.2054 116.326 26.9958 116.326 24.2742ZM112.473 38.2862C112.689 34.2712 115.168 30.7952 118.563 29.7443C119.425 30.1754 120.314 30.391 121.258 30.391C122.201 30.391 123.117 30.1754 123.952 29.7443C127.347 30.7952 129.826 34.2712 130.042 38.2862H112.473Z" fill="black"/>
<path d="M180.835 36.7233L179.299 24.2473C179.246 23.9509 179.003 23.7353 178.707 23.7353H175.554V22.6305C175.554 19.9359 174.045 18.1305 171.808 18.1305C169.572 18.1305 168.063 19.9359 168.063 22.6305V23.7353H164.695C164.425 23.7353 164.183 23.9239 164.102 24.2473L162.566 36.6964C162.458 37.3431 162.701 38.0706 163.132 38.5287C163.536 39.0138 164.21 39.3371 164.91 39.3371H178.464C179.138 39.3371 179.784 39.0407 180.243 38.5557C180.728 38.0706 180.943 37.397 180.835 36.7233ZM169.302 23.7892V22.6844C169.302 21.1485 169.976 19.3431 171.862 19.3431C173.749 19.3431 174.422 21.1485 174.422 22.6844V23.7892H169.302ZM179.704 36.885C179.731 37.2084 179.623 37.5587 179.407 37.8012C179.138 38.0706 178.814 38.2054 178.518 38.2054H164.937C164.587 38.2054 164.264 38.0437 164.048 37.8012C163.832 37.5587 163.725 37.1814 163.752 36.8311L165.234 24.9748H178.222L179.704 36.885Z" fill="black"/>
<path d="M178.087 36.7233C177.871 36.9389 177.575 37.1006 177.279 37.1006H166.15C165.826 37.1006 165.53 36.9658 165.341 36.7233C165.153 36.5078 165.045 36.1575 165.072 35.8341L166.311 25.9988H177.144L178.356 35.888C178.383 36.1844 178.276 36.5078 178.087 36.7233Z" fill="#E5CDA4"/>
</svg>
