<svg width="21" height="16" viewBox="0 0 21 16" fill="none" xmlns="http://www.w3.org/2000/svg">
<g clip-path="url(#clip0_101_3525)">
<path d="M-4.52002 0.330002H25.5606V15.3703H-4.52002V0.330002Z" fill="#000066"/>
<path d="M-4.52002 0.330002V2.01154L22.1976 15.3704H25.5606V13.6889L-1.15702 0.330002H-4.52002ZM25.5606 0.330002V2.01151L-1.15702 15.3703H-4.52002V13.6888L22.1976 0.330002H25.5606Z" fill="white"/>
<path d="M8.01356 0.330002V15.3703H13.027V0.330002H8.01356ZM-4.52002 5.34343V10.3569H25.5606V5.34343H-4.52002Z" fill="white"/>
<path d="M-4.52002 6.34612V9.35418H25.5606V6.34612H-4.52002ZM9.01627 0.330002V15.3703H12.0243V0.330002H9.01627ZM-4.52002 15.3703L5.50684 10.3569H7.74886L-2.278 15.3703H-4.52002ZM-4.52002 0.330002L5.50684 5.34343H3.26483L-4.52002 1.45107V0.330002ZM13.2917 5.34343L23.3186 0.330002H25.5606L15.5337 5.34343H13.2917ZM25.5606 15.3703L15.5337 10.3569H17.7757L25.5606 14.2493V15.3703Z" fill="#CC0000"/>
</g>
<defs>
<clipPath id="clip0_101_3525">
<rect width="21" height="15" fill="white" transform="translate(0 0.330002)"/>
</clipPath>
</defs>
</svg>
