<svg width="24" height="25" viewBox="0 0 24 25" fill="none" xmlns="http://www.w3.org/2000/svg">
<path d="M21.6094 0.742188H2.41406C1.74219 0.742188 1.17188 0.976562 0.703125 1.44531C0.234375 1.91406 0 2.48438 0 3.15625V22.3516C0 23.0078 0.234375 23.5703 0.703125 24.0391C1.17188 24.5078 1.74219 24.7422 2.41406 24.7422H21.6094C22.2656 24.7422 22.8281 24.5078 23.2969 24.0391C23.7656 23.5703 24 23.0078 24 22.3516V3.15625C24 2.48438 23.7656 1.91406 23.2969 1.44531C22.8281 0.976562 22.2656 0.742188 21.6094 0.742188ZM12 7.96094C12.6719 7.96094 13.2969 8.08594 13.875 8.33594C14.4531 8.58594 14.9609 8.92578 15.3984 9.35547C15.8359 9.78516 16.1797 10.293 16.4297 10.8789C16.6797 11.4648 16.8047 12.0859 16.8047 12.7422C16.8047 13.4141 16.6797 14.0391 16.4297 14.6172C16.1797 15.1953 15.8359 15.7031 15.3984 16.1406C14.9609 16.5781 14.4531 16.9219 13.875 17.1719C13.2969 17.4219 12.6719 17.5469 12 17.5469C11.3438 17.5469 10.7227 17.4219 10.1367 17.1719C9.55078 16.9219 9.04297 16.5781 8.61328 16.1406C8.18359 15.7031 7.84375 15.1953 7.59375 14.6172C7.34375 14.0391 7.21875 13.4141 7.21875 12.7422C7.21875 12.0859 7.34375 11.4648 7.59375 10.8789C7.84375 10.293 8.1875 9.78516 8.625 9.35547C9.0625 8.92578 9.57031 8.58594 10.1484 8.33594C10.7266 8.08594 11.3438 7.96094 12 7.96094ZM3 22.3516C3 22.3516 2.99609 22.3516 2.98828 22.3516C2.98047 22.3516 2.97656 22.3516 2.97656 22.3516C2.82031 22.3516 2.6875 22.2969 2.57812 22.1875C2.46875 22.0781 2.41406 21.9453 2.41406 21.7891C2.41406 21.7734 2.41406 21.7656 2.41406 21.7656C2.41406 21.7656 2.41406 21.7578 2.41406 21.7422V11.5469H4.92188C4.89062 11.7031 4.86328 11.8633 4.83984 12.0273C4.81641 12.1914 4.80469 12.3672 4.80469 12.5547C4.80469 12.5859 4.80469 12.6172 4.80469 12.6484C4.80469 12.6797 4.80469 12.7188 4.80469 12.7656C4.80469 13.75 4.99219 14.6797 5.36719 15.5547C5.74219 16.4297 6.25781 17.1914 6.91406 17.8398C7.57031 18.4883 8.33594 19.0039 9.21094 19.3867C10.0859 19.7695 11.0156 19.9609 12 19.9609C13 19.9609 13.9375 19.7695 14.8125 19.3867C15.6875 19.0039 16.4492 18.4883 17.0977 17.8398C17.7461 17.1914 18.2617 16.4297 18.6445 15.5547C19.0273 14.6797 19.2188 13.7422 19.2188 12.7422C19.2188 12.7109 19.2188 12.6797 19.2188 12.6484C19.2188 12.6172 19.2188 12.5859 19.2188 12.5547C19.2188 12.3672 19.207 12.1875 19.1836 12.0156C19.1602 11.8438 19.125 11.6797 19.0781 11.5234L21.6094 11.5469V21.7422C21.6094 21.7578 21.6094 21.7656 21.6094 21.7656C21.6094 21.7656 21.6094 21.7734 21.6094 21.7891C21.6094 21.9453 21.5547 22.0781 21.4453 22.1875C21.3359 22.2969 21.2031 22.3516 21.0469 22.3516C21.0312 22.3516 21.0234 22.3516 21.0234 22.3516C21.0234 22.3516 21.0156 22.3516 21 22.3516H3ZM21.6094 6.15625C21.6094 6.15625 21.6094 6.16016 21.6094 6.16797C21.6094 6.17578 21.6094 6.17969 21.6094 6.17969C21.6094 6.33594 21.5547 6.46875 21.4453 6.57812C21.3359 6.6875 21.2031 6.74219 21.0469 6.74219C21.0312 6.74219 21.0234 6.74219 21.0234 6.74219C21.0234 6.74219 21.0156 6.74219 21 6.74219H18.6094C18.6094 6.74219 18.6055 6.74219 18.5977 6.74219C18.5898 6.74219 18.5859 6.74219 18.5859 6.74219C18.4297 6.74219 18.293 6.6875 18.1758 6.57812C18.0586 6.46875 18 6.33594 18 6.17969C18 6.17969 18 6.17578 18 6.16797C18 6.16016 18 6.15625 18 6.15625V3.74219C18 3.74219 18 3.73828 18 3.73047C18 3.72266 18 3.71875 18 3.71875C18 3.5625 18.0586 3.42969 18.1758 3.32031C18.293 3.21094 18.4297 3.15625 18.5859 3.15625C18.5859 3.15625 18.5898 3.15625 18.5977 3.15625C18.6055 3.15625 18.6094 3.15625 18.6094 3.15625H21C21.0156 3.15625 21.0234 3.15625 21.0234 3.15625C21.0234 3.15625 21.0312 3.15625 21.0469 3.15625C21.2031 3.15625 21.3359 3.21094 21.4453 3.32031C21.5547 3.42969 21.6094 3.5625 21.6094 3.71875C21.6094 3.71875 21.6094 3.72266 21.6094 3.73047C21.6094 3.73828 21.6094 3.74219 21.6094 3.74219V6.15625Z" fill="black"/>
</svg>
