<svg width="15" height="25" viewBox="0 0 15 25" fill="none" xmlns="http://www.w3.org/2000/svg">
<path d="M7.67773 0.254816C7.66211 0.254816 7.6543 0.254816 7.6543 0.254816C7.6543 0.254816 7.64649 0.254816 7.63087 0.254816C6.66237 0.254816 5.74464 0.442268 4.87768 0.817169C4.01072 1.19207 3.25701 1.69975 2.61655 2.34021C1.9761 2.98067 1.46451 3.73047 1.0818 4.58962C0.699086 5.44877 0.50773 6.36259 0.50773 7.33109V7.35452C0.445246 9.02596 0.76157 10.8497 1.4567 12.8257C2.15183 14.8018 2.93288 16.6373 3.79984 18.3321C4.6668 20.027 5.46347 21.4407 6.18984 22.5732C6.91621 23.7057 7.2794 24.272 7.2794 24.272C7.2794 24.272 7.66992 23.7057 8.45096 22.5732C9.23201 21.4407 10.0951 20.027 11.0401 18.3321C11.9852 16.6373 12.8522 14.8018 13.641 12.8257C14.4299 10.8497 14.8243 9.02596 14.8243 7.35452C14.8243 6.37041 14.6368 5.44877 14.2619 4.58962C13.887 3.73047 13.3755 2.98067 12.7272 2.34021C12.0789 1.69975 11.3252 1.19207 10.4661 0.817169C9.60691 0.442268 8.68528 0.254816 7.70116 0.254816C7.70116 0.254816 7.69726 0.254816 7.68945 0.254816C7.68163 0.254816 7.67773 0.254816 7.67773 0.254816ZM7.67773 11.0801C6.86544 11.0801 6.17422 10.795 5.60405 10.2249C5.03389 9.6547 4.74881 8.96348 4.74881 8.15119C4.74881 7.3389 5.03389 6.64768 5.60405 6.07751C6.17422 5.50735 6.86544 5.22227 7.67773 5.22227C8.4744 5.22227 9.16172 5.50735 9.73969 6.07751C10.3177 6.64768 10.6067 7.3389 10.6067 8.15119C10.6067 8.96348 10.3177 9.6547 9.73969 10.2249C9.16172 10.795 8.4744 11.0801 7.67773 11.0801Z" fill="black"/>
</svg>
