<svg width="24" height="18" viewBox="0 0 24 18" fill="none" xmlns="http://www.w3.org/2000/svg">
<path d="M23.7656 3.98438C23.7656 3.98438 23.6953 3.67969 23.5547 3.07031C23.4141 2.46094 23.1641 1.97656 22.8047 1.61719C22.3516 1.13281 21.8945 0.847656 21.4336 0.761719C20.9727 0.675781 20.625 0.617188 20.3906 0.585938C19.5625 0.523438 18.6562 0.476562 17.6719 0.445312C16.6875 0.414062 15.7773 0.390625 14.9414 0.375C14.1055 0.359375 13.4062 0.351562 12.8438 0.351562C12.2812 0.351562 12 0.351562 12 0.351562C12 0.351562 11.7188 0.351562 11.1562 0.351562C10.5938 0.351562 9.89453 0.359375 9.05859 0.375C8.22266 0.390625 7.3125 0.414062 6.32812 0.445312C5.34375 0.476562 4.4375 0.523438 3.60938 0.585938C3.375 0.617188 3.02734 0.675781 2.56641 0.761719C2.10547 0.847656 1.64844 1.13281 1.19531 1.61719C0.835938 1.97656 0.585938 2.46094 0.445312 3.07031C0.304688 3.67969 0.234375 3.98438 0.234375 3.98438C0.171875 4.5625 0.117188 5.18359 0.0703125 5.84766C0.0234375 6.51172 0 7.17969 0 7.85156V9.67969C0 10.3828 0.0234375 11.0703 0.0703125 11.7422C0.117188 12.4141 0.179688 13.0859 0.257812 13.7578C0.335938 14.4141 0.421875 14.8555 0.515625 15.082C0.609375 15.3086 0.835938 15.6016 1.19531 15.9609C1.64844 16.4453 2.13672 16.7266 2.66016 16.8047C3.18359 16.8828 3.57812 16.9453 3.84375 16.9922C4.32812 17.0391 5.02344 17.0781 5.92969 17.1094C6.83594 17.1406 7.73828 17.1641 8.63672 17.1797C9.53516 17.1953 10.3203 17.207 10.9922 17.2148C11.6641 17.2227 12 17.2266 12 17.2266C12 17.2266 12.2812 17.2266 12.8438 17.2266C13.4062 17.2266 14.1094 17.2188 14.9531 17.2031C15.7969 17.1875 16.707 17.1641 17.6836 17.1328C18.6602 17.1016 19.5703 17.0547 20.4141 16.9922C20.6484 16.9609 20.9922 16.9023 21.4453 16.8164C21.8984 16.7305 22.3516 16.4453 22.8047 15.9609C23.1641 15.6016 23.4141 15.1172 23.5547 14.5078C23.6953 13.8984 23.7656 13.5938 23.7656 13.5938C23.8281 13.0156 23.8828 12.3945 23.9297 11.7305C23.9766 11.0664 24 10.3906 24 9.70312V7.875C24 7.1875 23.9766 6.50391 23.9297 5.82422C23.8828 5.14453 23.8203 4.47656 23.7422 3.82031L23.7656 3.98438ZM9.51562 11.9062V5.15625L16.0078 8.55469L9.51562 11.9062Z" fill="black"/>
</svg>
