<svg width="25" height="25" viewBox="0 0 25 25" fill="none" xmlns="http://www.w3.org/2000/svg">
<path d="M12.5234 0.251953C12.5234 0.251953 12.5195 0.251953 12.5117 0.251953C12.5039 0.251953 12.5 0.251953 12.5 0.251953C10.8438 0.251953 9.28906 0.568359 7.83594 1.20117C6.38281 1.83398 5.11328 2.69336 4.02734 3.7793C2.94141 4.86523 2.08203 6.13477 1.44922 7.58789C0.816406 9.04102 0.5 10.5957 0.5 12.252C0.5 13.4863 0.675781 14.6621 1.02734 15.7793C1.37891 16.8965 1.86719 17.9277 2.49219 18.873C3.11719 19.8184 3.86719 20.6621 4.74219 21.4043C5.61719 22.1465 6.57812 22.752 7.625 23.2207C7.65625 23.1426 7.67578 23.0527 7.68359 22.9512C7.69141 22.8496 7.69531 22.7441 7.69531 22.6348C7.69531 22.2598 7.71484 21.8887 7.75391 21.5215C7.79297 21.1543 7.84375 20.791 7.90625 20.4316L9.45312 13.9629C9.32812 13.6816 9.23438 13.3887 9.17188 13.084C9.10938 12.7793 9.07812 12.4551 9.07812 12.1113C9.07812 12.1113 9.07812 12.1035 9.07812 12.0879C9.07812 12.0723 9.07812 12.0645 9.07812 12.0645C9.07812 11.1738 9.30469 10.4355 9.75781 9.84961C10.2109 9.26367 10.7578 8.9707 11.3984 8.9707C11.9453 8.9707 12.3516 9.14648 12.6172 9.49805C12.8828 9.84961 13.0156 10.2676 13.0156 10.752C13.0156 11.2988 12.8828 11.9551 12.6172 12.7207C12.3516 13.4863 12.125 14.252 11.9375 15.0176C11.7969 15.6582 11.9219 16.2051 12.3125 16.6582C12.7031 17.1113 13.2109 17.3379 13.8359 17.3379C14.4141 17.3379 14.9336 17.166 15.3945 16.8223C15.8555 16.4785 16.2539 16.0176 16.5898 15.4395C16.9258 14.8613 17.1836 14.1855 17.3633 13.4121C17.543 12.6387 17.6328 11.8145 17.6328 10.9395C17.6328 9.62695 17.2031 8.5332 16.3438 7.6582C15.4844 6.7832 14.25 6.3457 12.6406 6.3457C11.7344 6.3457 10.9141 6.50195 10.1797 6.81445C9.44531 7.12695 8.82422 7.54883 8.31641 8.08008C7.80859 8.61133 7.41797 9.22461 7.14453 9.91992C6.87109 10.6152 6.73438 11.3379 6.73438 12.0879C6.73438 12.6191 6.80469 13.0762 6.94531 13.459C7.08594 13.8418 7.28125 14.1738 7.53125 14.4551C7.64062 14.5801 7.70703 14.6855 7.73047 14.7715C7.75391 14.8574 7.74219 14.9707 7.69531 15.1113C7.67969 15.2207 7.64453 15.3848 7.58984 15.6035C7.53516 15.8223 7.49219 15.9785 7.46094 16.0723C7.44531 16.1816 7.39844 16.2676 7.32031 16.3301C7.24219 16.3926 7.15625 16.4238 7.0625 16.4238C7.01562 16.4238 6.97656 16.4199 6.94531 16.4121C6.91406 16.4043 6.88281 16.3926 6.85156 16.377C6.02344 16.0332 5.41016 15.4434 5.01172 14.6074C4.61328 13.7715 4.41406 12.8379 4.41406 11.8066C4.41406 10.9473 4.58984 10.0762 4.94141 9.19336C5.29297 8.31055 5.82812 7.50586 6.54688 6.7793C7.26562 6.05273 8.16016 5.45898 9.23047 4.99805C10.3008 4.53711 11.5469 4.30664 12.9688 4.30664C14.125 4.30664 15.168 4.49805 16.0977 4.88086C17.0273 5.26367 17.8242 5.77148 18.4883 6.4043C19.1523 7.03711 19.668 7.76758 20.0352 8.5957C20.4023 9.42383 20.5859 10.2832 20.5859 11.1738C20.5859 12.3457 20.4297 13.4355 20.1172 14.4434C19.8047 15.4512 19.3633 16.3223 18.793 17.0566C18.2227 17.791 17.5391 18.3652 16.7422 18.7793C15.9453 19.1934 15.0625 19.4004 14.0938 19.4004C13.4531 19.4004 12.8594 19.252 12.3125 18.9551C11.7656 18.6582 11.3828 18.3066 11.1641 17.9004C11.1641 17.9004 11.043 18.3848 10.8008 19.3535C10.5586 20.3223 10.3984 20.9395 10.3203 21.2051C10.1797 21.6895 10.0039 22.1465 9.79297 22.5762C9.58203 23.0059 9.35156 23.416 9.10156 23.8066C9.63281 23.9473 10.1875 24.0566 10.7656 24.1348C11.3438 24.2129 11.9375 24.252 12.5469 24.252C14.2031 24.252 15.7617 23.9395 17.2227 23.3145C18.6836 22.6895 19.957 21.834 21.043 20.748C22.1289 19.6621 22.9844 18.3887 23.6094 16.9277C24.2344 15.4668 24.5469 13.9082 24.5469 12.252C24.5469 10.5957 24.2344 9.04102 23.6094 7.58789C22.9844 6.13477 22.1289 4.86523 21.043 3.7793C19.957 2.69336 18.6836 1.83398 17.2227 1.20117C15.7617 0.568359 14.2031 0.251953 12.5469 0.251953C12.5469 0.251953 12.543 0.251953 12.5352 0.251953C12.5273 0.251953 12.5234 0.251953 12.5234 0.251953Z" fill="black"/>
</svg>
