<svg width="25" height="25" viewBox="0 0 25 25" fill="none" xmlns="http://www.w3.org/2000/svg">
<path d="M22.1094 0.251953H2.91406C2.24219 0.251953 1.67188 0.486328 1.20312 0.955078C0.734375 1.42383 0.5 1.99414 0.5 2.66602V21.8613C0.5 22.5176 0.734375 23.0801 1.20312 23.5488C1.67188 24.0176 2.24219 24.252 2.91406 24.252H22.1094C22.7656 24.252 23.3281 24.0176 23.7969 23.5488C24.2656 23.0801 24.5 22.5176 24.5 21.8613V2.66602C24.5 1.99414 24.2656 1.42383 23.7969 0.955078C23.3281 0.486328 22.7656 0.251953 22.1094 0.251953ZM12.5 7.4707C13.1719 7.4707 13.7969 7.5957 14.375 7.8457C14.9531 8.0957 15.4609 8.43555 15.8984 8.86523C16.3359 9.29492 16.6797 9.80273 16.9297 10.3887C17.1797 10.9746 17.3047 11.5957 17.3047 12.252C17.3047 12.9238 17.1797 13.5488 16.9297 14.127C16.6797 14.7051 16.3359 15.2129 15.8984 15.6504C15.4609 16.0879 14.9531 16.4316 14.375 16.6816C13.7969 16.9316 13.1719 17.0566 12.5 17.0566C11.8438 17.0566 11.2227 16.9316 10.6367 16.6816C10.0508 16.4316 9.54297 16.0879 9.11328 15.6504C8.68359 15.2129 8.34375 14.7051 8.09375 14.127C7.84375 13.5488 7.71875 12.9238 7.71875 12.252C7.71875 11.5957 7.84375 10.9746 8.09375 10.3887C8.34375 9.80273 8.6875 9.29492 9.125 8.86523C9.5625 8.43555 10.0703 8.0957 10.6484 7.8457C11.2266 7.5957 11.8438 7.4707 12.5 7.4707ZM3.5 21.8613C3.5 21.8613 3.49609 21.8613 3.48828 21.8613C3.48047 21.8613 3.47656 21.8613 3.47656 21.8613C3.32031 21.8613 3.1875 21.8066 3.07812 21.6973C2.96875 21.5879 2.91406 21.4551 2.91406 21.2988C2.91406 21.2832 2.91406 21.2754 2.91406 21.2754C2.91406 21.2754 2.91406 21.2676 2.91406 21.252V11.0566H5.42188C5.39062 11.2129 5.36328 11.373 5.33984 11.5371C5.31641 11.7012 5.30469 11.877 5.30469 12.0645C5.30469 12.0957 5.30469 12.127 5.30469 12.1582C5.30469 12.1895 5.30469 12.2285 5.30469 12.2754C5.30469 13.2598 5.49219 14.1895 5.86719 15.0645C6.24219 15.9395 6.75781 16.7012 7.41406 17.3496C8.07031 17.998 8.83594 18.5137 9.71094 18.8965C10.5859 19.2793 11.5156 19.4707 12.5 19.4707C13.5 19.4707 14.4375 19.2793 15.3125 18.8965C16.1875 18.5137 16.9492 17.998 17.5977 17.3496C18.2461 16.7012 18.7617 15.9395 19.1445 15.0645C19.5273 14.1895 19.7188 13.252 19.7188 12.252C19.7188 12.2207 19.7188 12.1895 19.7188 12.1582C19.7188 12.127 19.7188 12.0957 19.7188 12.0645C19.7188 11.877 19.707 11.6973 19.6836 11.5254C19.6602 11.3535 19.625 11.1895 19.5781 11.0332L22.1094 11.0566V21.252C22.1094 21.2676 22.1094 21.2754 22.1094 21.2754C22.1094 21.2754 22.1094 21.2832 22.1094 21.2988C22.1094 21.4551 22.0547 21.5879 21.9453 21.6973C21.8359 21.8066 21.7031 21.8613 21.5469 21.8613C21.5312 21.8613 21.5234 21.8613 21.5234 21.8613C21.5234 21.8613 21.5156 21.8613 21.5 21.8613H3.5ZM22.1094 5.66602C22.1094 5.66602 22.1094 5.66992 22.1094 5.67773C22.1094 5.68555 22.1094 5.68945 22.1094 5.68945C22.1094 5.8457 22.0547 5.97852 21.9453 6.08789C21.8359 6.19727 21.7031 6.25195 21.5469 6.25195C21.5312 6.25195 21.5234 6.25195 21.5234 6.25195C21.5234 6.25195 21.5156 6.25195 21.5 6.25195H19.1094C19.1094 6.25195 19.1055 6.25195 19.0977 6.25195C19.0898 6.25195 19.0859 6.25195 19.0859 6.25195C18.9297 6.25195 18.793 6.19727 18.6758 6.08789C18.5586 5.97852 18.5 5.8457 18.5 5.68945C18.5 5.68945 18.5 5.68555 18.5 5.67773C18.5 5.66992 18.5 5.66602 18.5 5.66602V3.25195C18.5 3.25195 18.5 3.24805 18.5 3.24023C18.5 3.23242 18.5 3.22852 18.5 3.22852C18.5 3.07227 18.5586 2.93945 18.6758 2.83008C18.793 2.7207 18.9297 2.66602 19.0859 2.66602C19.0859 2.66602 19.0898 2.66602 19.0977 2.66602C19.1055 2.66602 19.1094 2.66602 19.1094 2.66602H21.5C21.5156 2.66602 21.5234 2.66602 21.5234 2.66602C21.5234 2.66602 21.5312 2.66602 21.5469 2.66602C21.7031 2.66602 21.8359 2.7207 21.9453 2.83008C22.0547 2.93945 22.1094 3.07227 22.1094 3.22852C22.1094 3.22852 22.1094 3.23242 22.1094 3.24023C22.1094 3.24805 22.1094 3.25195 22.1094 3.25195V5.66602Z" fill="black"/>
</svg>
