<svg width="24" height="20" viewBox="0 0 24 20" fill="none" xmlns="http://www.w3.org/2000/svg">
<path d="M24 2.28896L21.75 4.53896V4.91396C21.75 5.11708 21.7344 5.32021 21.7031 5.52333C21.6719 5.72646 21.6328 5.92958 21.5859 6.13271C21.5703 6.89833 21.4883 7.71474 21.3398 8.58192C21.1914 9.44911 20.9258 10.3358 20.543 11.2421C20.1602 12.1483 19.6445 13.0507 18.9961 13.9491C18.3477 14.8475 17.5156 15.703 16.5 16.5155C14.5156 18.0936 12.5391 19.0233 10.5703 19.3046C8.60156 19.5858 6.83203 19.5741 5.26172 19.2694C3.69141 18.9647 2.42188 18.5546 1.45312 18.039C0.484375 17.5233 0 17.2655 0 17.2655C3.375 17.2655 5.34375 16.8905 5.90625 16.1405C6.46875 15.3905 6.75 15.0155 6.75 15.0155C6.375 15.0155 5.92969 14.8593 5.41406 14.5468C4.89844 14.2343 4.40625 13.8905 3.9375 13.5155C3.46875 13.1405 3.07031 12.7968 2.74219 12.4843C2.41406 12.1718 2.25 12.0155 2.25 12.0155C2.625 12.3905 3.09375 12.4843 3.65625 12.2968C4.21875 12.1093 4.5 12.0155 4.5 12.0155C2.625 10.8905 1.53125 9.86317 1.21875 8.93349C0.90625 8.0038 0.75 7.53896 0.75 7.53896C1.125 7.91396 1.59375 8.00771 2.15625 7.82021C2.71875 7.63271 3 7.53896 3 7.53896C2.0625 6.78896 1.45703 6.01552 1.18359 5.21864C0.910156 4.42177 0.796875 3.69521 0.84375 3.03896C0.890625 2.38271 1.01172 1.84364 1.20703 1.42177C1.40234 0.999893 1.5 0.788956 1.5 0.788956C1.6875 1.72646 2.33984 2.52724 3.45703 3.1913C4.57422 3.85536 5.76562 4.39833 7.03125 4.82021C8.29688 5.24208 9.44141 5.55067 10.4648 5.74599C11.4883 5.9413 12 6.03896 12 6.03896L12.1172 5.96864C12.0859 5.74989 12.0586 5.51942 12.0352 5.27724C12.0117 5.03505 12 4.78896 12 4.53896C12 3.86708 12.1289 3.2538 12.3867 2.69911C12.6445 2.14442 12.9922 1.67177 13.4297 1.28114C13.8672 0.890518 14.3828 0.585831 14.9766 0.367081C15.5703 0.148331 16.2031 0.0389557 16.875 0.0389557C17.6094 0.0389557 18.2969 0.195206 18.9375 0.507706C19.5781 0.820206 20.1172 1.23427 20.5547 1.74989L21 1.53896L23.25 0.0389557L21.75 3.03896L24 2.28896Z" fill="black"/>
</svg>
