<svg width="11" height="7" viewBox="0 0 11 7" fill="none" xmlns="http://www.w3.org/2000/svg">
<path d="M9.72974 0.323608L5.24731 5.22791L0.764893 0.341187C0.729736 0.30603 0.685791 0.276733 0.633057 0.253296C0.580322 0.229858 0.524658 0.21814 0.466064 0.21814C0.337158 0.21814 0.22876 0.262085 0.140869 0.349976C0.0529785 0.437866 0.0090332 0.546265 0.0090332 0.675171C0.0090332 0.733765 0.020752 0.789429 0.0441895 0.842163C0.067627 0.894897 0.0969238 0.938843 0.13208 0.973999L4.91333 6.21228C4.96021 6.24744 5.01001 6.27673 5.06274 6.30017C5.11548 6.32361 5.177 6.33533 5.24731 6.33533C5.30591 6.33533 5.36157 6.32361 5.41431 6.30017C5.46704 6.27673 5.51685 6.24744 5.56372 6.21228C5.56372 6.21228 5.56958 6.21228 5.5813 6.21228L10.3801 0.973999C10.427 0.938843 10.4622 0.891968 10.4856 0.833374C10.509 0.77478 10.5208 0.710327 10.5208 0.640015C10.5208 0.522827 10.4768 0.420288 10.3889 0.332397C10.301 0.244507 10.1926 0.200562 10.0637 0.200562C10.0051 0.200562 9.94653 0.21228 9.88794 0.235718C9.82935 0.259155 9.77661 0.294312 9.72974 0.341187V0.323608Z" fill="#333333"/>
</svg>
